<?xml version="1.0" encoding="utf-8"?>
<!-- Generator: Adobe Illustrator 16.0.0, SVG Export Plug-In . SVG Version: 6.00 Build 0)  -->
<!DOCTYPE svg PUBLIC "-//W3C//DTD SVG 1.0//EN" "http://www.w3.org/TR/2001/REC-SVG-20010904/DTD/svg10.dtd">
<svg version="1.0" id="Capa_1" xmlns="http://www.w3.org/2000/svg" xmlns:xlink="http://www.w3.org/1999/xlink" x="0px" y="0px"
	 width="960px" height="560px" viewBox="0 0 960 560" enable-background="new 0 0 960 560" xml:space="preserve">
<g>
	<path fill="#0067E2" d="M322.506,455.422h-40.63v-82.663H171.678v82.663h-40.63V283.391h40.63v75.628h110.198v-75.628h40.63
		V455.422z"/>
	<path fill="#0067E2" d="M580.607,443.221c0,3.591-3.023,6.522-9.061,8.794c-6.043,2.271-13.839,3.407-23.385,3.407H428.026
		c-9.55,0-17.346-1.136-23.384-3.407c-6.042-2.271-9.062-5.203-9.062-8.794V295.592c0-3.59,3.019-6.521,9.062-8.794
		c6.038-2.271,13.834-3.407,23.384-3.407h120.136c9.546,0,17.342,1.137,23.385,3.407c6.037,2.272,9.061,5.204,9.061,8.794v40.013
		h-40.922v-38.693H436.211v144.99h103.475v-59.469h-48.814v-13.191h89.736V443.221z"/>
	<path fill="#0067E2" d="M831.402,443.221c0,3.591-2.974,6.522-8.916,8.794c-5.946,2.271-13.692,3.407-23.237,3.407H684.082
		c-9.55,0-17.392-1.136-23.53-3.407s-9.207-5.203-9.207-8.794V399.58h40.63v42.321h98.798v-41.002l-126.274-57.38
		c-8.77-3.958-13.153-8.317-13.153-13.081v-34.847c0-3.59,3.068-6.521,9.207-8.794c6.139-2.271,13.98-3.407,23.53-3.407h115.167
		c9.545,0,17.291,1.137,23.237,3.407c5.942,2.272,8.916,5.204,8.916,8.794v40.013h-40.63v-38.693h-98.798v36.275l126.858,57.38
		c8.376,3.812,12.569,8.099,12.569,12.861V443.221z"/>
</g>
<polygon fill="#000DAF" points="480,280 393,280 393,214.479 480,200 "/>
<polygon fill="#00E2E2" points="480,280 567,280 567,214.479 480,200 "/>
<polygon fill="#00E2E2" points="646,280 593,280 593,218.901 646,227.724 "/>
<polygon fill="#000DAF" points="314,280 367,280 367,218.901 314,227.724 "/>
<polygon fill="#000DAF" points="261,280 297,280 297,230.578 261,236.514 "/>
<polygon fill="#00E2E2" points="700,280 663,280 663,230.578 700,236.748 "/>
</svg>
